<svg width="24" height="24" viewBox="0 0 24 24" fill="none" xmlns="http://www.w3.org/2000/svg">
<path d="M11.9362 0.000102642C10.9328 0.00298118 9.93361 0.129945 8.96138 0.378103C4.28158 1.5411 0.567782 5.7808 0.0917817 10.5876C-0.498218 15.1364 1.79968 19.8732 5.73548 22.2221C9.59628 24.64 14.8281 24.542 18.6089 21.9991C22.0058 19.7931 24.1207 15.7714 23.9947 11.7146C23.9367 7.6987 21.6847 3.7979 18.2359 1.735C16.354 0.574003 14.1431 -0.00889736 11.9362 0.000102642ZM11.8732 1.6961C16.818 1.6891 21.6618 5.5098 22.1547 10.6206C23.0997 16.2803 18.4019 22.0331 12.6672 22.2001C7.21338 22.7441 1.94268 18.1203 1.78768 12.6435C1.38068 8.2097 4.30358 3.8089 8.48538 2.344C9.56317 1.91465 10.713 1.69415 11.8732 1.6961ZM16.964 4.9209C14.2771 7.0058 11.7042 9.2287 9.07538 11.3776C10.2783 11.3946 11.4872 11.3936 12.6962 11.3876C14.1062 9.2226 15.5551 7.0868 16.964 4.9209ZM11.2993 12.5745C9.88928 14.7405 8.43928 16.8833 7.02938 19.0482C9.72238 16.9683 12.2842 14.7284 14.9311 12.5925C13.7205 12.5779 12.5099 12.5719 11.2993 12.5745Z" fill="white"/>
</svg>
