<svg width="122" height="24" viewBox="0 0 122 24" fill="none" xmlns="http://www.w3.org/2000/svg">
<path d="M11.9362 0.000102642C10.9328 0.00298118 9.93361 0.129945 8.96138 0.378103C4.28158 1.5411 0.567782 5.7808 0.0917817 10.5876C-0.498218 15.1364 1.79968 19.8732 5.73548 22.2221C9.59628 24.64 14.8281 24.542 18.6089 21.9991C22.0058 19.7931 24.1207 15.7714 23.9947 11.7146C23.9367 7.6987 21.6847 3.7979 18.2359 1.735C16.354 0.574003 14.1431 -0.00889736 11.9362 0.000102642ZM11.8732 1.6961C16.818 1.6891 21.6618 5.5098 22.1547 10.6206C23.0997 16.2803 18.4019 22.0331 12.6672 22.2001C7.21338 22.7441 1.94268 18.1203 1.78768 12.6435C1.38068 8.2097 4.30358 3.8089 8.48538 2.344C9.56317 1.91465 10.713 1.69415 11.8732 1.6961ZM16.964 4.9209C14.2771 7.0058 11.7042 9.2287 9.07538 11.3776C10.2783 11.3946 11.4872 11.3936 12.6962 11.3876C14.1062 9.2226 15.5551 7.0868 16.964 4.9209ZM11.2993 12.5745C9.88928 14.7405 8.43928 16.8833 7.02938 19.0482C9.72238 16.9683 12.2842 14.7284 14.9311 12.5925C13.7205 12.5779 12.5099 12.5719 11.2993 12.5745Z" fill="white"/>
<path d="M33.056 16.224C32.1387 16.224 31.2533 16.112 30.4 15.888C29.5573 15.6533 28.8693 15.3547 28.336 14.992L29.376 12.656C29.8773 12.976 30.4533 13.2427 31.104 13.456C31.7653 13.6587 32.4213 13.76 33.072 13.76C33.5093 13.76 33.8613 13.7227 34.128 13.648C34.3947 13.5627 34.5867 13.456 34.704 13.328C34.832 13.1893 34.896 13.0293 34.896 12.848C34.896 12.592 34.7787 12.3893 34.544 12.24C34.3093 12.0907 34.0053 11.968 33.632 11.872C33.2587 11.776 32.8427 11.68 32.384 11.584C31.936 11.488 31.4827 11.3653 31.024 11.216C30.576 11.0667 30.1653 10.8747 29.792 10.64C29.4187 10.3947 29.1147 10.08 28.88 9.696C28.6453 9.30133 28.528 8.80533 28.528 8.208C28.528 7.536 28.7093 6.928 29.072 6.384C29.4453 5.84 30 5.40267 30.736 5.072C31.472 4.74133 32.3893 4.576 33.488 4.576C34.224 4.576 34.944 4.66133 35.648 4.832C36.3627 4.992 36.9973 5.232 37.552 5.552L36.576 7.904C36.0427 7.616 35.5147 7.40267 34.992 7.264C34.4693 7.11467 33.9627 7.04 33.472 7.04C33.0347 7.04 32.6827 7.088 32.416 7.184C32.1493 7.26933 31.9573 7.38667 31.84 7.536C31.7227 7.68533 31.664 7.856 31.664 8.048C31.664 8.29333 31.776 8.49067 32 8.64C32.2347 8.77867 32.5387 8.896 32.912 8.992C33.296 9.07733 33.712 9.168 34.16 9.264C34.6187 9.36 35.072 9.48267 35.52 9.632C35.9787 9.77067 36.3947 9.96267 36.768 10.208C37.1413 10.4427 37.44 10.7573 37.664 11.152C37.8987 11.536 38.016 12.0213 38.016 12.608C38.016 13.2587 37.8293 13.8613 37.456 14.416C37.0933 14.96 36.544 15.3973 35.808 15.728C35.0827 16.0587 34.1653 16.224 33.056 16.224ZM43.0474 16.144C42.098 16.144 41.2554 15.952 40.5194 15.568C39.7834 15.184 39.202 14.656 38.7754 13.984C38.3594 13.3013 38.1514 12.5227 38.1514 11.648C38.1514 10.7733 38.3594 10 38.7754 9.328C39.202 8.656 39.7834 8.13333 40.5194 7.76C41.2554 7.376 42.098 7.184 43.0474 7.184C43.9967 7.184 44.8394 7.376 45.5754 7.76C46.322 8.13333 46.9034 8.656 47.3194 9.328C47.7354 10 47.9434 10.7733 47.9434 11.648C47.9434 12.5227 47.7354 13.3013 47.3194 13.984C46.9034 14.656 46.322 15.184 45.5754 15.568C44.8394 15.952 43.9967 16.144 43.0474 16.144ZM43.0474 13.728C43.3994 13.728 43.7087 13.648 43.9754 13.488C44.2527 13.328 44.4714 13.0933 44.6314 12.784C44.7914 12.464 44.8714 12.0853 44.8714 11.648C44.8714 11.2107 44.7914 10.8427 44.6314 10.544C44.4714 10.2347 44.2527 10 43.9754 9.84C43.7087 9.68 43.3994 9.6 43.0474 9.6C42.706 9.6 42.3967 9.68 42.1194 9.84C41.8527 10 41.634 10.2347 41.4634 10.544C41.3034 10.8427 41.2234 11.2107 41.2234 11.648C41.2234 12.0853 41.3034 12.464 41.4634 12.784C41.634 13.0933 41.8527 13.328 42.1194 13.488C42.3967 13.648 42.706 13.728 43.0474 13.728ZM53.1436 16.144C52.1836 16.144 51.325 15.952 50.5676 15.568C49.821 15.184 49.2343 14.656 48.8076 13.984C48.381 13.3013 48.1676 12.5227 48.1676 11.648C48.1676 10.7733 48.381 10 48.8076 9.328C49.2343 8.656 49.821 8.13333 50.5676 7.76C51.325 7.376 52.1836 7.184 53.1436 7.184C54.125 7.184 54.973 7.392 55.6876 7.808C56.4023 8.224 56.909 8.81067 57.2076 9.568L54.8556 10.768C54.653 10.3627 54.4023 10.0693 54.1036 9.888C53.805 9.696 53.4796 9.6 53.1276 9.6C52.7756 9.6 52.4556 9.68 52.1676 9.84C51.8796 10 51.6503 10.2347 51.4796 10.544C51.3196 10.8427 51.2396 11.2107 51.2396 11.648C51.2396 12.096 51.3196 12.4747 51.4796 12.784C51.6503 13.0933 51.8796 13.328 52.1676 13.488C52.4556 13.648 52.7756 13.728 53.1276 13.728C53.4796 13.728 53.805 13.6373 54.1036 13.456C54.4023 13.264 54.653 12.9653 54.8556 12.56L57.2076 13.76C56.909 14.5173 56.4023 15.104 55.6876 15.52C54.973 15.936 54.125 16.144 53.1436 16.144ZM60.209 14.4L60.289 10.768L63.825 7.328H67.425L63.505 11.376L61.953 12.624L60.209 14.4ZM57.681 16V4.128H60.721V16H57.681ZM64.049 16L61.393 12.672L63.281 10.336L67.729 16H64.049ZM72.1787 16.144C71.1547 16.144 70.2587 15.952 69.4907 15.568C68.7334 15.1733 68.1414 14.64 67.7147 13.968C67.2987 13.2853 67.0907 12.512 67.0907 11.648C67.0907 10.784 67.2934 10.016 67.6987 9.344C68.1147 8.66133 68.6854 8.13333 69.4107 7.76C70.1361 7.376 70.9521 7.184 71.8587 7.184C72.7121 7.184 73.4907 7.36 74.1947 7.712C74.8987 8.05333 75.4587 8.56 75.8747 9.232C76.2907 9.904 76.4987 10.72 76.4987 11.68C76.4987 11.7867 76.4934 11.9093 76.4827 12.048C76.4721 12.1867 76.4614 12.3147 76.4507 12.432H69.5867V10.832H74.8347L73.6827 11.28C73.6934 10.8853 73.6187 10.544 73.4587 10.256C73.3094 9.968 73.0961 9.744 72.8187 9.584C72.5521 9.424 72.2374 9.344 71.8747 9.344C71.5121 9.344 71.1921 9.424 70.9147 9.584C70.6481 9.744 70.4401 9.97333 70.2907 10.272C70.1414 10.56 70.0667 10.9013 70.0667 11.296V11.76C70.0667 12.1867 70.1521 12.5547 70.3227 12.864C70.5041 13.1733 70.7601 13.4133 71.0907 13.584C71.4214 13.744 71.8161 13.824 72.2747 13.824C72.7014 13.824 73.0641 13.7653 73.3627 13.648C73.6721 13.52 73.9761 13.328 74.2747 13.072L75.8747 14.736C75.4587 15.1947 74.9467 15.5467 74.3387 15.792C73.7307 16.0267 73.0107 16.144 72.1787 16.144ZM81.1324 16.144C80.023 16.144 79.159 15.872 78.5404 15.328C77.9217 14.7733 77.6124 13.9413 77.6124 12.832V5.392H80.6524V12.8C80.6524 13.1093 80.7377 13.3547 80.9084 13.536C81.079 13.7067 81.2977 13.792 81.5644 13.792C81.927 13.792 82.2364 13.7013 82.4924 13.52L83.2444 15.648C82.9884 15.8187 82.6737 15.9413 82.3004 16.016C81.927 16.1013 81.5377 16.144 81.1324 16.144ZM76.3484 9.92V7.648H82.6364V9.92H76.3484ZM89.5046 16.224C88.6193 16.224 87.798 16.0853 87.0406 15.808C86.294 15.52 85.6433 15.1147 85.0886 14.592C84.5446 14.0693 84.118 13.456 83.8086 12.752C83.4993 12.0373 83.3446 11.2533 83.3446 10.4C83.3446 9.54667 83.4993 8.768 83.8086 8.064C84.118 7.34933 84.5446 6.73067 85.0886 6.208C85.6433 5.68533 86.294 5.28533 87.0406 5.008C87.798 4.72 88.6193 4.576 89.5046 4.576C90.5393 4.576 91.462 4.75733 92.2726 5.12C93.094 5.48267 93.7766 6.00533 94.3206 6.688L92.3046 8.512C91.942 8.08533 91.542 7.76 91.1046 7.536C90.678 7.312 90.198 7.2 89.6646 7.2C89.206 7.2 88.7846 7.27467 88.4006 7.424C88.0166 7.57333 87.686 7.792 87.4086 8.08C87.142 8.35733 86.9286 8.69333 86.7686 9.088C86.6193 9.48267 86.5446 9.92 86.5446 10.4C86.5446 10.88 86.6193 11.3173 86.7686 11.712C86.9286 12.1067 87.142 12.448 87.4086 12.736C87.686 13.0133 88.0166 13.2267 88.4006 13.376C88.7846 13.5253 89.206 13.6 89.6646 13.6C90.198 13.6 90.678 13.488 91.1046 13.264C91.542 13.04 91.942 12.7147 92.3046 12.288L94.3206 14.112C93.7766 14.784 93.094 15.3067 92.2726 15.68C91.462 16.0427 90.5393 16.224 89.5046 16.224ZM100.597 7.184C101.269 7.184 101.877 7.32267 102.421 7.6C102.965 7.86667 103.392 8.28267 103.701 8.848C104.021 9.41333 104.181 10.144 104.181 11.04V16H101.141V11.536C101.141 10.9173 101.013 10.4693 100.757 10.192C100.512 9.904 100.165 9.76 99.7171 9.76C99.3971 9.76 99.1038 9.83467 98.8371 9.984C98.5705 10.1227 98.3625 10.3413 98.2131 10.64C98.0638 10.9387 97.9891 11.328 97.9891 11.808V16H94.9491V4.128H97.9891V9.792L97.2851 9.072C97.6158 8.44267 98.0691 7.97333 98.6451 7.664C99.2211 7.344 99.8718 7.184 100.597 7.184ZM110.746 16V14.384L110.538 13.984V11.008C110.538 10.528 110.388 10.16 110.09 9.904C109.802 9.63733 109.338 9.504 108.698 9.504C108.282 9.504 107.86 9.57333 107.434 9.712C107.007 9.84 106.644 10.0213 106.346 10.256L105.322 8.192C105.812 7.872 106.399 7.62667 107.082 7.456C107.775 7.27467 108.463 7.184 109.146 7.184C110.554 7.184 111.642 7.50933 112.41 8.16C113.188 8.8 113.578 9.808 113.578 11.184V16H110.746ZM108.186 16.144C107.492 16.144 106.906 16.0267 106.426 15.792C105.946 15.5573 105.578 15.2373 105.322 14.832C105.076 14.4267 104.954 13.9733 104.954 13.472C104.954 12.9387 105.087 12.48 105.354 12.096C105.631 11.7013 106.052 11.4027 106.618 11.2C107.183 10.9867 107.914 10.88 108.81 10.88H110.858V12.464H109.226C108.735 12.464 108.388 12.544 108.186 12.704C107.994 12.864 107.898 13.0773 107.898 13.344C107.898 13.6107 107.999 13.824 108.202 13.984C108.404 14.144 108.682 14.224 109.034 14.224C109.364 14.224 109.663 14.144 109.93 13.984C110.207 13.8133 110.41 13.5573 110.538 13.216L110.954 14.336C110.794 14.9333 110.479 15.3867 110.01 15.696C109.551 15.9947 108.943 16.144 108.186 16.144ZM118.729 16.144C117.619 16.144 116.755 15.872 116.137 15.328C115.518 14.7733 115.209 13.9413 115.209 12.832V5.392H118.249V12.8C118.249 13.1093 118.334 13.3547 118.505 13.536C118.675 13.7067 118.894 13.792 119.161 13.792C119.523 13.792 119.833 13.7013 120.089 13.52L120.841 15.648C120.585 15.8187 120.27 15.9413 119.897 16.016C119.523 16.1013 119.134 16.144 118.729 16.144ZM113.945 9.92V7.648H120.233V9.92H113.945Z" fill="white"/>
</svg>
