<svg width="18" height="18" viewBox="0 0 18 18" fill="none" xmlns="http://www.w3.org/2000/svg">
<path fill-rule="evenodd" clip-rule="evenodd" d="M13.7073 0.5L15.3339 0.510612L15.352 3.0906L17.9892 3.10837L18 4.69969L15.3623 4.68249L15.3805 7.26248L13.7533 7.25243L13.7357 4.67188L11.098 4.65467L11.0878 3.06279L13.7249 3.08056L13.7073 0.5ZM9.69583 7.88696C9.69583 9.65336 8.2455 11.0913 6.46386 11.0913C4.68226 11.0913 3.23193 9.65336 3.23193 7.88696C3.23193 6.12057 4.68226 4.68262 6.46386 4.68262C8.2455 4.68262 9.69583 6.12057 9.69583 7.88696ZM0 16.6989C0 13.8687 2.65745 11.8924 6.46386 11.8924C10.2703 11.8924 12.9278 13.8687 12.9278 16.6989V17.5H0V16.6989Z" fill="#B9BBBE"/>
</svg>
