<svg width="32" height="32" viewBox="0 0 32 32" fill="none" xmlns="http://www.w3.org/2000/svg">
<rect width="32" height="32" rx="10" fill="url(#paint0_linear_79_5)"/>
<g clip-path="url(#clip0_79_5)">
<path d="M13.7042 6.04167C13.6692 6.0125 13.5875 6.0125 13.5208 6C13.4867 6.05 13.4392 6.09417 13.4267 6.13833C13.4011 6.25255 13.3833 6.36837 13.3733 6.485C13.1189 9.1669 12.0281 11.701 10.255 13.7292C9.20668 14.9575 8.16334 16.2142 7.38834 17.55C5.47751 20.86 7.18084 24.2425 11.3575 25.72C11.4933 25.77 11.6475 25.7925 11.9908 25.8708C10.5733 24.5925 9.84918 23.2875 10.0908 21.7508C10.3275 20.28 11.0675 18.97 12.195 17.7758C12.2635 17.918 12.2921 18.0762 12.2775 18.2333C12.2208 19.5433 12.655 20.7 13.9967 21.6125C14.6142 22.035 15.1717 22.5133 15.7292 22.9825C16.2992 23.4575 16.4658 24.035 16.3025 24.6617C16.2275 24.9667 16.1133 25.2658 15.9875 25.6375C16.9417 25.5458 17.8233 25.4175 18.4158 24.8875C18.9825 24.3842 19.4017 23.7858 20.0067 23.0925C20.0475 23.6817 20.1317 24.1383 20.1008 24.5925C20.0633 25.0642 19.9175 25.5308 19.8208 26C22.7183 25.5625 25.2758 22.7217 25.3892 19.8108C25.4708 17.6917 23.6633 14.5825 22.145 14.28L22.3967 14.8533C22.9225 16.0125 23.0775 17.1867 22.7433 18.4C22.41 19.6067 20.7217 20.9608 19.2317 21.1308C19.2817 21.0108 19.3042 20.8975 19.3733 20.8058C20.9792 18.6425 20.995 16.3808 20.085 14.0692C18.8667 10.9833 16.5267 8.4 13.7042 6.04417V6.04167Z" fill="white"/>
</g>
<defs>
<linearGradient id="paint0_linear_79_5" x1="16" y1="0" x2="16" y2="32" gradientUnits="userSpaceOnUse">
<stop stop-color="#EB844E"/>
<stop offset="1" stop-color="#DD2C00"/>
</linearGradient>
<clipPath id="clip0_79_5">
<rect width="20" height="20" fill="white" transform="translate(6 6)"/>
</clipPath>
</defs>
</svg>
