<svg width="13" height="14" viewBox="0 0 13 14" fill="none" xmlns="http://www.w3.org/2000/svg">
<path fill-rule="evenodd" clip-rule="evenodd" d="M4.03935 10.4138H1.00862C0.741118 10.4138 0.484575 10.3075 0.295417 10.1184C0.106266 9.92923 0 9.67267 0 9.40514V5.70688C0 4.45854 0.495901 3.26133 1.37862 2.37862C2.26133 1.4959 3.45855 1 4.70689 1C5.95523 1 7.15247 1.4959 8.03518 2.37862C8.43318 2.77665 8.75257 3.23864 8.9833 3.74042C10.0217 3.89436 10.9837 4.39209 11.7111 5.16044C12.5387 6.03463 13 7.19267 13 8.39656V12.0948C13 12.3623 12.8938 12.6189 12.7046 12.808C12.5154 12.9972 12.2589 13.1035 11.9914 13.1035H8.2931C7.31966 13.1035 6.37017 12.8017 5.57528 12.2398C4.91282 11.7716 4.38488 11.1418 4.03935 10.4138ZM2.32956 3.32955C2.96006 2.69904 3.81521 2.34483 4.70689 2.34483C5.59856 2.34483 6.45373 2.69904 7.08426 3.32956C7.71472 3.96006 8.06897 4.81522 8.06897 5.7069C8.06897 6.59857 7.71472 7.45375 7.08426 8.08427C6.45373 8.71473 5.59858 9.06897 4.7069 9.06897H4.49365C4.49005 9.0689 4.48646 9.0689 4.48286 9.06897H1.34483V5.70689C1.34483 4.81522 1.69904 3.96006 2.32956 3.32955ZM5.5475 10.3381C5.76671 10.6478 6.03803 10.9201 6.35152 11.1417C6.91937 11.5431 7.59774 11.7586 8.2931 11.7586H11.6552V8.39656C11.6552 7.53666 11.3257 6.70946 10.7345 6.08503C10.359 5.68844 9.89614 5.39278 9.38833 5.21779C9.40526 5.37954 9.41379 5.54278 9.41379 5.7069C9.41379 6.95524 8.91789 8.15248 8.03518 9.03519C7.35323 9.71714 6.48348 10.1682 5.5475 10.3381Z" fill="#72767D"/>
</svg>
