<svg width="13" height="13" viewBox="0 0 13 13" fill="none" xmlns="http://www.w3.org/2000/svg">
<path fill-rule="evenodd" clip-rule="evenodd" d="M12.5 6.48773C12.5 7.08097 11.54 7.52402 11.36 8.05718C11.18 8.59034 11.69 9.55905 11.36 10.0021C11.03 10.4451 9.98 10.2649 9.515 10.6028C9.05 10.9408 8.9225 11.9846 8.36 12.1723C7.7975 12.36 7.1075 11.5715 6.5075 11.5715C5.9075 11.5715 5.195 12.3225 4.655 12.1723C4.115 12.0221 3.965 10.9408 3.5 10.6028C3.035 10.2649 2 10.4677 1.655 10.0021C1.31 9.53652 1.8275 8.62038 1.655 8.05718C1.4825 7.49398 0.5 7.08097 0.5 6.48773C0.5 5.8945 1.46 5.45145 1.64 4.91829C1.82 4.38512 1.31 3.41642 1.64 2.97337C1.97 2.53032 3.0275 2.71054 3.5 2.37262C3.9725 2.03471 4.085 0.990909 4.6475 0.780648C5.21 0.570387 5.9 1.40392 6.5 1.40392C7.1 1.40392 7.8125 0.65299 8.3525 0.803176C8.8925 0.953363 9.035 2.03471 9.5 2.37262C9.965 2.71054 11 2.50779 11.345 2.97337C11.69 3.43895 11.1725 4.35509 11.345 4.91829C11.5175 5.48148 12.5 5.8945 12.5 6.48773Z" fill="white"/>
<path fill-rule="evenodd" clip-rule="evenodd" d="M6.41824 2.92847L4.31824 5.02847V7.82847L6.41824 9.92847L8.51824 7.82847V5.02847L6.41824 2.92847ZM7.81824 7.56247L6.41824 8.96247L5.01824 7.56247V5.32247L6.41824 3.92247L7.81824 5.32247V7.56247ZM6.95021 5.44143L6.41821 4.90943L5.71821 5.60943V6.67343L6.95021 5.44143ZM6.41813 7.97547L5.91413 7.47147L7.11813 6.26746V7.27547L6.41813 7.97547Z" fill="#FF6BFA"/>
</svg>
