<svg width="20" height="20" viewBox="0 0 110 110" fill="none" xmlns="http://www.w3.org/2000/svg">
    <path
        d="M13.6853 13.645V40.9348H20.5078V47.7573H27.3302V40.9348H34.1527V34.1124H40.9751V40.9348H47.7976V47.7573H54.62V40.9348H61.4425V34.1124H68.2649V40.9348H75.0874V47.7573H81.9098V40.9348H88.7323V34.1124H95.5547V13.645H13.6853Z"
        fill="#28D270" />
    <path
        d="M40.9751 34.1123H34.1527V40.9348H27.3302V47.7572H20.5078V40.9348H13.6853V47.7572H20.5078V54.5797H27.3302V47.7572H34.1527V40.9348H40.9751V47.7572H47.7976V54.5797H54.62V47.7572H61.4425V40.9348H68.2649V47.7572H75.0874V54.5797H81.9098V47.7572H88.7323V40.9348H95.5547V34.1123H88.7323V40.9348H81.9098V47.7572H75.0874V40.9348H68.2649V34.1123H61.4425V40.9348H54.62V47.7572H47.7976V40.9348H40.9751V34.1123Z"
        fill="#21BB63" />
    <path d="M95.5547 6.82227H102.377V47.757H95.5547V6.82227Z" fill="#108E4D" />
    <path
        d="M40.9751 40.9346H34.1527V47.757H27.3302V61.4019H20.5078V54.5795H13.6853V68.2244H20.5078V75.0468H81.9098V68.2244H88.7323V61.4019H95.5547V40.9346H88.7323V47.757H81.9098V54.5795H75.0874V47.757H68.2649V40.9346H61.4425V47.757H54.62V54.5795H47.7976V47.757H40.9751V40.9346Z"
        fill="#FFDAAB" />
    <path d="M95.5544 47.7573H102.377V61.4022H95.5544V47.7573Z" fill="#FFB676" />
    <path d="M88.732 68.2247V61.4022H95.5544V68.2247H88.732Z" fill="#FFB676" />
    <path d="M81.9095 75.0471V68.2247H88.732V75.0471H81.9095Z" fill="#FFB676" />
    <path d="M81.9095 75.0471V81.8696H34.1523V75.0471H81.9095Z" fill="#FFB676" />
    <path d="M6.8623 6.82227H95.5542V13.6447H13.6848V47.757H20.5072V54.5794H13.6848V61.4019H6.8623V6.82227Z"
        fill="white" />
    <path d="M20.5072 54.5794H27.3297V61.4019H20.5072V54.5794Z" fill="white" />
    <path d="M27.3297 75.0468H34.1521V81.8692H27.3297V75.0468Z" fill="white" />
    <path d="M40.9746 88.6917V81.8692H34.1521V88.6917H40.9746Z" fill="white" />
    <path d="M47.797 88.6917H40.9746V102.337H47.797V88.6917Z" fill="white" />
    <path d="M40.9746 81.8696V88.6921H47.7971V95.5145H61.442V88.6921H68.2644V81.8696H40.9746Z" fill="#161A8A" />
    <path d="M68.2645 81.8696H75.0869V88.6921H68.2645V81.8696Z" fill="#000066" />
    <path d="M68.2645 88.6921H61.442V95.5145H47.7971V102.337H68.2645V88.6921Z" fill="#000066" />
    <path fill-rule="evenodd" clip-rule="evenodd"
        d="M102.377 0H6.86249V6.82245H0.0400391V61.4021H6.86249V68.2245H13.6849V75.047H20.5074V81.8694H27.3299V88.6919H34.1523V102.337H40.9748V109.159H68.2646V102.337H75.087V88.6919H81.9095V81.8694H88.7319V75.047H95.5544V68.2245H102.377V61.4021H109.199V6.82245H102.377V0ZM102.377 6.82245V34.1123V61.4021H95.5544V68.2245H88.7319V75.047H81.9095V81.8694H75.087V88.6919H68.2646V102.337H40.9748V88.6919H34.1523V81.8694H27.3299V75.047H20.5074V68.2245H13.6849V61.4021H6.86249V6.82245H102.377Z"
        fill="black" />
</svg>
