<svg width="32" height="32" viewBox="0 0 32 32" fill="none" xmlns="http://www.w3.org/2000/svg">
<rect width="32" height="32" rx="10" fill="#5865F2"/>
<path d="M15.9362 4.0001C14.9328 4.00298 13.9336 4.12994 12.9614 4.3781C8.28158 5.5411 4.56778 9.7808 4.09178 14.5876C3.50178 19.1364 5.79968 23.8732 9.73548 26.2221C13.5963 28.64 18.8281 28.542 22.6089 25.9991C26.0058 23.7931 28.1207 19.7714 27.9947 15.7146C27.9367 11.6987 25.6847 7.7979 22.2359 5.735C20.354 4.574 18.1431 3.9911 15.9362 4.0001ZM15.8732 5.6961C20.818 5.6891 25.6618 9.5098 26.1547 14.6206C27.0997 20.2803 22.4019 26.0331 16.6672 26.2001C11.2134 26.7441 5.94268 22.1203 5.78768 16.6435C5.38068 12.2097 8.30358 7.8089 12.4854 6.344C13.5632 5.91465 14.713 5.69415 15.8732 5.6961ZM20.964 8.9209C18.2771 11.0058 15.7042 13.2287 13.0754 15.3776C14.2783 15.3946 15.4872 15.3936 16.6962 15.3876C18.1062 13.2226 19.5551 11.0868 20.964 8.9209ZM15.2993 16.5745C13.8893 18.7405 12.4393 20.8833 11.0294 23.0482C13.7224 20.9683 16.2842 18.7284 18.9311 16.5925C17.7205 16.5779 16.5099 16.5719 15.2993 16.5745Z" fill="white"/>
</svg>
