<svg width="34" height="34" viewBox="0 0 34 34" fill="none" xmlns="http://www.w3.org/2000/svg">
<rect width="34" height="34" rx="10" fill="url(#paint0_linear_75_10)"/>
<path d="M16.9904 5C14.7404 5 12.4904 5.06 10.3904 5.21C9.05759 5.29659 7.80024 5.85925 6.84756 6.7954C5.89489 7.73155 5.31033 8.97887 5.20043 10.31C4.96043 13.52 4.93043 16.7 5.14043 19.91C5.25543 21.3366 5.9081 22.6662 6.96634 23.6297C8.02458 24.5933 9.40936 25.1188 10.8404 25.1H13.9904V21.2H10.8404C9.91043 21.23 9.10043 20.57 9.01043 19.64C8.83043 16.64 8.86043 13.64 9.07043 10.64C9.13043 9.8 9.79043 9.17 10.6304 9.11C12.6704 8.96 14.8304 8.9 16.9904 8.9C19.1504 8.9 21.3104 8.99 23.3504 9.08C24.1604 9.14 24.8504 9.77 24.9104 10.61C25.1504 13.61 25.1504 16.61 24.9704 19.61C24.8504 20.54 24.0704 21.23 23.1404 21.2H19.9904L13.9904 25.1V29L19.9904 25.1H23.1404C26.1104 25.13 28.6004 22.85 28.8404 19.91C29.0504 16.73 29.0204 13.52 28.8104 10.34C28.7005 9.00887 28.116 7.76156 27.1633 6.8254C26.2106 5.88925 24.9533 5.32659 23.6204 5.24C21.4904 5.06 19.2404 5 16.9904 5ZM11.9504 13.76C11.5904 13.76 11.2904 14.06 11.2904 14.42V16.76C11.2904 17.09 11.4704 17.39 11.7704 17.54C13.3904 18.32 15.1904 18.74 16.9904 18.8C18.7904 18.74 20.5904 18.32 22.2104 17.54C22.5104 17.39 22.6904 17.09 22.6904 16.76V14.42C22.6904 14.33 22.6604 14.27 22.6004 14.21C22.569 14.1277 22.521 14.0527 22.4595 13.9895C22.3981 13.9263 22.3244 13.8764 22.2429 13.8427C22.1615 13.809 22.0741 13.7923 21.9859 13.7935C21.8978 13.7948 21.8109 13.814 21.7304 13.85C20.2304 14.51 18.6104 14.87 16.9604 14.9C15.3104 14.87 13.6904 14.48 12.1904 13.82C12.1158 13.7825 12.0339 13.7621 11.9504 13.76Z" fill="white"/>
<defs>
<linearGradient id="paint0_linear_75_10" x1="3" y1="6.5" x2="31" y2="31.5" gradientUnits="userSpaceOnUse">
<stop stop-color="#CD83CB"/>
<stop offset="1" stop-color="#B674F1"/>
</linearGradient>
</defs>
</svg>
