<svg width="547" height="74" viewBox="0 0 547 74" fill="none" xmlns="http://www.w3.org/2000/svg">
<path d="M23.768 72.864C19.352 72.864 15.032 72.352 10.808 71.328C6.648 70.304 3.288 69.024 0.728 67.488L6.2 55.008C8.632 56.48 11.48 57.664 14.744 58.56C18.008 59.392 21.208 59.808 24.344 59.808C27.416 59.808 29.528 59.488 30.68 58.848C31.896 58.208 32.504 57.344 32.504 56.256C32.504 55.232 31.928 54.496 30.776 54.048C29.688 53.536 28.216 53.152 26.36 52.896C24.568 52.64 22.584 52.352 20.408 52.032C18.232 51.712 16.024 51.296 13.784 50.784C11.608 50.208 9.592 49.376 7.736 48.288C5.944 47.136 4.504 45.6 3.416 43.68C2.328 41.76 1.784 39.328 1.784 36.384C1.784 33.056 2.744 30.112 4.664 27.552C6.648 24.928 9.528 22.88 13.304 21.408C17.08 19.872 21.688 19.104 27.128 19.104C30.776 19.104 34.456 19.488 38.168 20.256C41.944 20.96 45.112 22.048 47.672 23.52L42.2 35.904C39.64 34.432 37.08 33.44 34.52 32.928C31.96 32.352 29.528 32.064 27.224 32.064C24.152 32.064 21.976 32.416 20.696 33.12C19.48 33.824 18.872 34.688 18.872 35.712C18.872 36.736 19.416 37.536 20.504 38.112C21.592 38.624 23.032 39.04 24.824 39.36C26.68 39.616 28.696 39.904 30.872 40.224C33.048 40.48 35.224 40.896 37.4 41.472C39.64 42.048 41.656 42.912 43.448 44.064C45.304 45.152 46.776 46.656 47.864 48.576C48.952 50.432 49.496 52.832 49.496 55.776C49.496 58.976 48.504 61.856 46.52 64.416C44.6 66.976 41.72 69.024 37.88 70.56C34.104 72.096 29.4 72.864 23.768 72.864ZM79.628 72.864C73.932 72.864 68.876 71.712 64.46 69.408C60.044 67.104 56.556 63.936 53.996 59.904C51.5 55.808 50.252 51.136 50.252 45.888C50.252 40.64 51.5 36 53.996 31.968C56.556 27.936 60.044 24.8 64.46 22.56C68.876 20.256 73.932 19.104 79.628 19.104C85.324 19.104 90.38 20.256 94.796 22.56C99.276 24.8 102.764 27.936 105.26 31.968C107.756 36 109.004 40.64 109.004 45.888C109.004 51.136 107.756 55.808 105.26 59.904C102.764 63.936 99.276 67.104 94.796 69.408C90.38 71.712 85.324 72.864 79.628 72.864ZM79.628 58.368C81.74 58.368 83.596 57.888 85.196 56.928C86.86 55.968 88.172 54.56 89.132 52.704C90.092 50.784 90.572 48.512 90.572 45.888C90.572 43.264 90.092 41.056 89.132 39.264C88.172 37.408 86.86 36 85.196 35.04C83.596 34.08 81.74 33.6 79.628 33.6C77.58 33.6 75.724 34.08 74.06 35.04C72.46 36 71.148 37.408 70.124 39.264C69.164 41.056 68.684 43.264 68.684 45.888C68.684 48.512 69.164 50.784 70.124 52.704C71.148 54.56 72.46 55.968 74.06 56.928C75.724 57.888 77.58 58.368 79.628 58.368ZM140.206 72.864C134.446 72.864 129.294 71.712 124.749 69.408C120.27 67.104 116.75 63.936 114.189 59.904C111.629 55.808 110.349 51.136 110.349 45.888C110.349 40.64 111.629 36 114.189 31.968C116.75 27.936 120.27 24.8 124.749 22.56C129.294 20.256 134.446 19.104 140.206 19.104C146.094 19.104 151.182 20.352 155.47 22.848C159.758 25.344 162.798 28.864 164.59 33.408L150.478 40.608C149.262 38.176 147.758 36.416 145.966 35.328C144.174 34.176 142.222 33.6 140.11 33.6C137.998 33.6 136.078 34.08 134.35 35.04C132.622 36 131.246 37.408 130.222 39.264C129.262 41.056 128.782 43.264 128.782 45.888C128.782 48.576 129.262 50.848 130.222 52.704C131.246 54.56 132.622 55.968 134.35 56.928C136.078 57.888 137.998 58.368 140.11 58.368C142.222 58.368 144.174 57.824 145.966 56.736C147.758 55.584 149.262 53.792 150.478 51.36L164.59 58.56C162.798 63.104 159.758 66.624 155.47 69.12C151.182 71.616 146.094 72.864 140.206 72.864ZM182.598 62.4L183.078 40.608L204.294 19.968H225.894L202.374 44.256L193.062 51.744L182.598 62.4ZM167.43 72V0.767996H185.67V72H167.43ZM205.638 72L189.702 52.032L201.03 38.016L227.718 72H205.638ZM254.416 72.864C248.272 72.864 242.896 71.712 238.288 69.408C233.744 67.04 230.192 63.84 227.632 59.808C225.136 55.712 223.888 51.072 223.888 45.888C223.888 40.704 225.104 36.096 227.536 32.064C230.032 27.968 233.456 24.8 237.808 22.56C242.16 20.256 247.056 19.104 252.496 19.104C257.616 19.104 262.288 20.16 266.512 22.272C270.736 24.32 274.096 27.36 276.592 31.392C279.088 35.424 280.336 40.32 280.336 46.08C280.336 46.72 280.304 47.456 280.24 48.288C280.176 49.12 280.112 49.888 280.048 50.592H238.864V40.992H270.352L263.44 43.68C263.504 41.312 263.056 39.264 262.096 37.536C261.2 35.808 259.92 34.464 258.256 33.504C256.656 32.544 254.768 32.064 252.592 32.064C250.416 32.064 248.496 32.544 246.832 33.504C245.232 34.464 243.984 35.84 243.088 37.632C242.192 39.36 241.744 41.408 241.744 43.776V46.56C241.744 49.12 242.256 51.328 243.28 53.184C244.368 55.04 245.904 56.48 247.888 57.504C249.872 58.464 252.24 58.944 254.992 58.944C257.552 58.944 259.728 58.592 261.52 57.888C263.376 57.12 265.2 55.968 266.992 54.432L276.592 64.416C274.096 67.168 271.024 69.28 267.376 70.752C263.728 72.16 259.408 72.864 254.416 72.864ZM308.138 72.864C301.482 72.864 296.298 71.232 292.586 67.968C288.874 64.64 287.018 59.648 287.018 52.992V8.352H305.258V52.8C305.258 54.656 305.77 56.128 306.794 57.216C307.818 58.24 309.13 58.752 310.73 58.752C312.906 58.752 314.762 58.208 316.298 57.12L320.81 69.888C319.274 70.912 317.386 71.648 315.146 72.096C312.906 72.608 310.57 72.864 308.138 72.864ZM279.434 35.52V21.888H317.162V35.52H279.434ZM358.371 73.344C353.059 73.344 348.131 72.512 343.587 70.848C339.107 69.12 335.203 66.688 331.875 63.552C328.611 60.416 326.051 56.736 324.195 52.512C322.339 48.224 321.411 43.52 321.411 38.4C321.411 33.28 322.339 28.608 324.195 24.384C326.051 20.096 328.611 16.384 331.875 13.248C335.203 10.112 339.107 7.712 343.587 6.048C348.131 4.32 353.059 3.456 358.371 3.456C364.579 3.456 370.115 4.544 374.979 6.72C379.907 8.896 384.003 12.032 387.267 16.128L375.171 27.072C372.995 24.512 370.595 22.56 367.971 21.216C365.411 19.872 362.531 19.2 359.331 19.2C356.579 19.2 354.051 19.648 351.747 20.544C349.443 21.44 347.459 22.752 345.795 24.48C344.195 26.144 342.915 28.16 341.955 30.528C341.059 32.896 340.611 35.52 340.611 38.4C340.611 41.28 341.059 43.904 341.955 46.272C342.915 48.64 344.195 50.688 345.795 52.416C347.459 54.08 349.443 55.36 351.747 56.256C354.051 57.152 356.579 57.6 359.331 57.6C362.531 57.6 365.411 56.928 367.971 55.584C370.595 54.24 372.995 52.288 375.171 49.728L387.267 60.672C384.003 64.704 379.907 67.84 374.979 70.08C370.115 72.256 364.579 73.344 358.371 73.344ZM424.926 19.104C428.958 19.104 432.606 19.936 435.87 21.6C439.134 23.2 441.694 25.696 443.55 29.088C445.47 32.48 446.43 36.864 446.43 42.24V72H428.19V45.216C428.19 41.504 427.422 38.816 425.886 37.152C424.414 35.424 422.334 34.56 419.646 34.56C417.726 34.56 415.966 35.008 414.366 35.904C412.766 36.736 411.518 38.048 410.622 39.84C409.726 41.632 409.278 43.968 409.278 46.848V72H391.038V0.767996H409.278V34.752L405.054 30.432C407.038 26.656 409.758 23.84 413.214 21.984C416.67 20.064 420.574 19.104 424.926 19.104ZM485.818 72V62.304L484.57 59.904V42.048C484.57 39.168 483.674 36.96 481.882 35.424C480.154 33.824 477.37 33.024 473.53 33.024C471.034 33.024 468.506 33.44 465.946 34.272C463.386 35.04 461.21 36.128 459.418 37.536L453.274 25.152C456.218 23.232 459.738 21.76 463.834 20.736C467.994 19.648 472.122 19.104 476.218 19.104C484.666 19.104 491.194 21.056 495.802 24.96C500.474 28.8 502.81 34.848 502.81 43.104V72H485.818ZM470.458 72.864C466.298 72.864 462.778 72.16 459.898 70.752C457.018 69.344 454.81 67.424 453.274 64.992C451.802 62.56 451.066 59.84 451.066 56.832C451.066 53.632 451.866 50.88 453.466 48.576C455.13 46.208 457.658 44.416 461.05 43.2C464.442 41.92 468.826 41.28 474.202 41.28H486.49V50.784H476.698C473.754 50.784 471.674 51.264 470.458 52.224C469.306 53.184 468.73 54.464 468.73 56.064C468.73 57.664 469.338 58.944 470.554 59.904C471.77 60.864 473.434 61.344 475.546 61.344C477.53 61.344 479.322 60.864 480.922 59.904C482.586 58.88 483.802 57.344 484.57 55.296L487.066 62.016C486.106 65.6 484.218 68.32 481.402 70.176C478.65 71.968 475.002 72.864 470.458 72.864ZM533.716 72.864C527.06 72.864 521.876 71.232 518.164 67.968C514.452 64.64 512.596 59.648 512.596 52.992V8.352H530.836V52.8C530.836 54.656 531.348 56.128 532.372 57.216C533.396 58.24 534.708 58.752 536.308 58.752C538.484 58.752 540.34 58.208 541.876 57.12L546.388 69.888C544.852 70.912 542.964 71.648 540.724 72.096C538.484 72.608 536.148 72.864 533.716 72.864ZM505.012 35.52V21.888H542.74V35.52H505.012Z" fill="url(#paint0_linear_33_14)"/>
<defs>
<linearGradient id="paint0_linear_33_14" x1="-1" y1="75" x2="549.221" y2="29.6819" gradientUnits="userSpaceOnUse">
<stop stop-color="#CD83CB"/>
<stop offset="1" stop-color="#B674F1"/>
</linearGradient>
</defs>
</svg>
